# xmcd
#
# Track frame offsets:
#	150
#	20786
#	37015
#	56007
#	74367
#	95231
#	111668
#	132102
#	150538
#	162405
#
# Disc length: 2371 seconds
#
# Revision: 0
# Processed by: cddbd v1.5.2PL0 Copyright (c) Steve Scherf et al.
# Submitted via: EasyCDDAExtractor 15.2.0.1
#
DISCID=9309410a
DTITLE=Dan Deslauriers - City Fever
DYEAR=2014
DGENRE=Blues
TTITLE0=City Fever
TTITLE1=Gotta Get Movin'
TTITLE2=How It Goes
TTITLE3=On My Way
TTITLE4=In My Hour
TTITLE5=Take It In Stride
TTITLE6=Looking on the Horizon
TTITLE7=Down the Line
TTITLE8=Too Much On My Mind
TTITLE9=Get On Higher
EXTD=
EXTT0=
EXTT1=
EXTT2=
EXTT3=
EXTT4=
EXTT5=
EXTT6=
EXTT7=
EXTT8=
EXTT9=
PLAYORDER=
